<svg width="20" height="20" viewBox="0 0 20 20" fill="none" xmlns="http://www.w3.org/2000/svg">
<path d="M3.79588 19.1667H16.1952C18.1492 19.1667 19.1667 18.1181 19.1667 16.1143V4.71918C19.1667 2.71544 18.1492 1.66675 16.1952 1.66675H3.79588C1.85089 1.66675 0.833374 2.70607 0.833374 4.71918V16.1143C0.833374 18.1181 1.85089 19.1667 3.79588 19.1667ZM3.78688 17.3035C3.0395 17.3035 2.62529 16.9008 2.62529 16.0769V7.46263C2.62529 6.63866 3.0395 6.23604 3.78688 6.23604H16.2042C16.9516 6.23604 17.3658 6.63866 17.3658 7.46263V16.0769C17.3658 16.9008 16.9516 17.3035 16.2042 17.3035H3.78688ZM8.26216 9.46637H8.79343C9.11759 9.46637 9.22565 9.36338 9.22565 9.03566V8.48323C9.22565 8.14615 9.11759 8.04315 8.79343 8.04315H8.26216C7.93799 8.04315 7.82994 8.14615 7.82994 8.48323V9.03566C7.82994 9.36338 7.93799 9.46637 8.26216 9.46637ZM11.2067 9.46637H11.7379C12.0531 9.46637 12.1611 9.36338 12.1611 9.03566V8.48323C12.1611 8.14615 12.0531 8.04315 11.7379 8.04315H11.2067C10.8825 8.04315 10.7744 8.14615 10.7744 8.48323V9.03566C10.7744 9.36338 10.8825 9.46637 11.2067 9.46637ZM14.1421 9.46637H14.6734C14.9976 9.46637 15.1056 9.36338 15.1056 9.03566V8.48323C15.1056 8.14615 14.9976 8.04315 14.6734 8.04315H14.1421C13.827 8.04315 13.7189 8.14615 13.7189 8.48323V9.03566C13.7189 9.36338 13.827 9.46637 14.1421 9.46637ZM5.32666 12.4814H5.84893C6.17309 12.4814 6.28115 12.3784 6.28115 12.0413V11.4888C6.28115 11.1611 6.17309 11.0581 5.84893 11.0581H5.32666C5.0025 11.0581 4.89444 11.1611 4.89444 11.4888V12.0413C4.89444 12.3784 5.0025 12.4814 5.32666 12.4814ZM8.26216 12.4814H8.79343C9.11759 12.4814 9.22565 12.3784 9.22565 12.0413V11.4888C9.22565 11.1611 9.11759 11.0581 8.79343 11.0581H8.26216C7.93799 11.0581 7.82994 11.1611 7.82994 11.4888V12.0413C7.82994 12.3784 7.93799 12.4814 8.26216 12.4814ZM11.2067 12.4814H11.7379C12.0531 12.4814 12.1611 12.3784 12.1611 12.0413V11.4888C12.1611 11.1611 12.0531 11.0581 11.7379 11.0581H11.2067C10.8825 11.0581 10.7744 11.1611 10.7744 11.4888V12.0413C10.7744 12.3784 10.8825 12.4814 11.2067 12.4814ZM14.1421 12.4814H14.6734C14.9976 12.4814 15.1056 12.3784 15.1056 12.0413V11.4888C15.1056 11.1611 14.9976 11.0581 14.6734 11.0581H14.1421C13.827 11.0581 13.7189 11.1611 13.7189 11.4888V12.0413C13.7189 12.3784 13.827 12.4814 14.1421 12.4814ZM5.32666 15.487H5.84893C6.17309 15.487 6.28115 15.384 6.28115 15.0563V14.5038C6.28115 14.1667 6.17309 14.0638 5.84893 14.0638H5.32666C5.0025 14.0638 4.89444 14.1667 4.89444 14.5038V15.0563C4.89444 15.384 5.0025 15.487 5.32666 15.487ZM8.26216 15.487H8.79343C9.11759 15.487 9.22565 15.384 9.22565 15.0563V14.5038C9.22565 14.1667 9.11759 14.0638 8.79343 14.0638H8.26216C7.93799 14.0638 7.82994 14.1667 7.82994 14.5038V15.0563C7.82994 15.384 7.93799 15.487 8.26216 15.487ZM11.2067 15.487H11.7379C12.0531 15.487 12.1611 15.384 12.1611 15.0563V14.5038C12.1611 14.1667 12.0531 14.0638 11.7379 14.0638H11.2067C10.8825 14.0638 10.7744 14.1667 10.7744 14.5038V15.0563C10.7744 15.384 10.8825 15.487 11.2067 15.487Z" fill="#FF6400"/>
</svg>
