<svg width="20" height="20" viewBox="0 0 20 20" fill="none" xmlns="http://www.w3.org/2000/svg">
<path d="M10.0042 14.1666C10.2922 14.1666 10.5548 14.0601 10.7665 13.8388L17.2205 7.45567C17.4068 7.2754 17.5 7.05416 17.5 6.78376C17.5 6.25115 17.068 5.83325 16.526 5.83325C16.2549 5.83325 16.0008 5.93977 15.8145 6.12004L10.0042 11.8805L4.19396 6.12004C3.99915 5.93977 3.75353 5.83325 3.4825 5.83325C2.93196 5.83325 2.5 6.25115 2.5 6.78376C2.5 7.04597 2.60164 7.2754 2.78797 7.45567L9.24195 13.8388C9.46217 14.0601 9.71626 14.1666 10.0042 14.1666Z" fill="#AEAEB2"/>
</svg>
