<svg width="170" height="40" viewBox="0 0 170 40" fill="none" xmlns="http://www.w3.org/2000/svg">
<path d="M17.5383 20.3609C17.089 16.6452 21.3781 13.6653 27.1197 13.7061C32.8597 13.7475 37.8811 16.7903 38.3304 20.501C38.7801 24.2171 34.4933 27.1935 28.7517 27.1537C23.0112 27.1159 17.9892 24.072 17.5383 20.3609ZM39.3976 21.5129C38.879 16.9062 33.1007 13.1336 26.4939 13.0837C19.8827 13.0344 14.9479 16.7289 15.4676 21.3335C15.9863 25.9397 21.764 29.7133 28.3719 29.7637C34.9803 29.8116 39.9185 26.1181 39.3976 21.5129Z" fill="#FBB584"/>
<path d="M29.4235 29.854C26.1712 32.9448 20.9438 33.1988 17.7559 30.427C14.5663 27.6578 14.6207 22.9095 17.8775 19.8233C21.1331 16.7365 26.3589 16.4805 29.5468 19.2508C32.7336 22.022 32.6803 26.7713 29.4235 29.854ZM17.365 19.726C13.5812 23.3116 13.5196 28.831 17.2261 32.0533C20.9321 35.272 27.0069 34.9757 30.789 31.388C34.5732 27.8009 34.6365 22.2811 30.9289 19.0598C27.2235 15.8405 21.1498 16.1373 17.365 19.726Z" fill="#F89B6C"/>
<path d="M17.7095 8.1718C24.48 5.87023 31.174 8.19901 32.6611 13.3731C34.1509 18.5513 29.8685 24.6154 23.0991 26.9154C16.3279 29.221 9.63284 26.8902 8.14634 21.7151C6.65485 16.5395 10.94 10.4764 17.7095 8.1718ZM11.4214 10.1513C4.39817 15.1974 2.61071 22.5124 7.42725 26.4845C12.2449 30.4587 21.8441 29.5869 28.8696 24.5403C35.8934 19.4947 37.683 12.1828 32.8632 8.20758C28.0433 4.23389 18.4447 5.10321 11.4214 10.1513Z" fill="#F37321"/>
<path d="M158.926 21.99H162.234C163.307 21.99 163.844 21.5971 163.844 20.78V20.4814C163.844 19.6643 163.307 19.2557 162.234 19.2557H158.926C157.853 19.2557 157.334 19.6643 157.334 20.4814V20.78C157.334 21.5971 157.853 21.99 158.926 21.99ZM165.922 20.3243V20.9528C165.922 21.7385 165.627 22.3671 165.039 22.8543C164.467 23.3571 163.705 23.5928 162.736 23.5928H157.334V23.6557C157.334 24.6143 157.905 25.0857 159.082 25.0857H165.454V26.7043H159.1C157.853 26.7043 156.901 26.4214 156.243 25.8557C155.585 25.3057 155.256 24.5043 155.256 23.4514V20.3243C155.256 19.5385 155.533 18.91 156.121 18.4071C156.676 17.9043 157.455 17.6528 158.442 17.6528H162.718C163.688 17.6528 164.467 17.9043 165.039 18.4071C165.627 18.91 165.922 19.5385 165.922 20.3243Z" fill="black"/>
<path d="M149.876 17.7315H153.668V19.3501H149.876V26.7044H147.781V17.5744C147.781 16.7101 148.11 16.003 148.803 15.4529C149.443 14.9344 150.413 14.6672 151.729 14.6672H153.668V16.3015H151.85C150.569 16.3015 149.911 16.7887 149.876 17.7315Z" fill="black"/>
<path d="M143.66 26.7044V17.653H145.773V26.7044H143.66ZM146.084 15.8301C146.084 16.1758 145.946 16.4587 145.686 16.6629C145.409 16.8829 145.08 16.9772 144.699 16.9772C144.318 16.9772 144.006 16.8829 143.764 16.6629C143.487 16.4587 143.366 16.1758 143.366 15.8301C143.366 15.4844 143.487 15.2015 143.764 14.9815C144.006 14.7772 144.318 14.6672 144.699 14.6672C145.08 14.6672 145.409 14.7772 145.686 14.9815C145.946 15.2015 146.084 15.4844 146.084 15.8301Z" fill="black"/>
<path d="M135.31 25.0544H141.89V26.7044H135.172C132.211 26.7044 130.739 25.5415 130.739 23.2158V14.6672H132.834V23.0901C132.834 24.4101 133.648 25.0544 135.31 25.0544Z" fill="black"/>
<path d="M120.008 22.3514H116.718C115.645 22.3514 115.125 22.76 115.125 23.5771V23.8757C115.125 24.6928 115.645 25.0857 116.718 25.0857H120.008C121.082 25.0857 121.636 24.6928 121.636 23.8757V23.5771C121.636 22.76 121.082 22.3514 120.008 22.3514ZM116.216 26.7043C115.247 26.7043 114.467 26.4685 113.913 25.9657C113.325 25.4785 113.048 24.85 113.048 24.0643V23.42C113.048 22.6343 113.325 22.0057 113.913 21.5028C114.467 21 115.247 20.7485 116.216 20.7485H121.636V20.7014C121.636 19.7428 121.047 19.2557 119.887 19.2557H113.861V17.6528H119.852C121.099 17.6528 122.051 17.9514 122.709 18.5171C123.367 19.0828 123.714 19.8843 123.714 20.9371V24.1271C123.714 24.9443 123.402 25.5885 122.796 26.06C122.242 26.5 121.463 26.7043 120.458 26.7043H116.216Z" fill="black"/>
<path d="M105.254 19.2872C104.51 19.2872 103.938 19.5229 103.523 19.9629C103.211 20.3086 103.073 20.8586 103.073 21.6129V26.7043H100.995V14.6357H103.073V18.2029C103.661 17.8415 104.354 17.6529 105.133 17.6529H107.176C108.457 17.6529 109.479 17.9986 110.224 18.6743C110.951 19.3657 111.332 20.3086 111.332 21.5186V26.7043H109.254V21.6129C109.254 20.8586 109.081 20.3086 108.769 19.9629C108.354 19.5229 107.782 19.2872 107.02 19.2872H105.254Z" fill="black"/>
<path d="M91.4024 25.4943C90.6579 26.3114 89.7402 26.7043 88.6494 26.7043H87.3681C86.208 26.7043 85.2903 26.3743 84.615 25.7143C83.9571 25.1014 83.6454 24.2214 83.6454 23.09V17.6528H85.7058V23.1057C85.7058 23.7657 85.8617 24.2528 86.1733 24.5514C86.5196 24.8971 86.9871 25.07 87.5758 25.07H88.4762C89.0649 25.07 89.5324 24.8971 89.896 24.5514C90.2077 24.2528 90.3808 23.7657 90.3808 23.1057V17.6528H92.424V23.1057C92.424 23.7657 92.5798 24.2528 92.8915 24.5514C93.2378 24.8971 93.7053 25.07 94.294 25.07H95.1944C95.7831 25.07 96.2506 24.8971 96.6142 24.5514C96.9258 24.2528 97.099 23.7657 97.099 23.1057V17.6528H99.1595V23.09C99.1595 24.2214 98.8132 25.1014 98.1552 25.7143C97.4626 26.3743 96.5449 26.7043 95.3848 26.7043H94.1208C93.0473 26.7043 92.1296 26.3114 91.4024 25.4943Z" fill="black"/>
<path d="M75.6269 17.6528H77.67C78.9513 17.6528 79.9729 17.9985 80.7174 18.6743C81.4447 19.3657 81.8256 20.3085 81.8256 21.5185V26.7043H79.7478V21.6128C79.7478 20.8585 79.5747 20.3085 79.263 19.9628C78.8474 19.5228 78.2761 19.2871 77.5142 19.2871H75.7481C75.0036 19.2871 74.4322 19.5228 74.0166 19.9628C73.7049 20.3085 73.5664 20.8585 73.5664 21.6128V26.7043H71.4886V21.5185C71.4886 20.3085 71.8523 19.3657 72.5968 18.6743C73.324 17.9985 74.3456 17.6528 75.6269 17.6528Z" fill="black"/>
<path d="M65.8487 22.3514H62.5589C61.4854 22.3514 60.966 22.76 60.966 23.5771V23.8757C60.966 24.6928 61.4854 25.0857 62.5589 25.0857H65.8487C66.9223 25.0857 67.4763 24.6928 67.4763 23.8757V23.5771C67.4763 22.76 66.9223 22.3514 65.8487 22.3514ZM62.0568 26.7043C61.0872 26.7043 60.308 26.4685 59.7539 25.9657C59.1652 25.4785 58.8882 24.85 58.8882 24.0643V23.42C58.8882 22.6343 59.1652 22.0057 59.7539 21.5028C60.308 21 61.0872 20.7485 62.0568 20.7485H67.4763V20.7014C67.4763 19.7428 66.8876 19.2557 65.7275 19.2557H59.702V17.6528H65.6929C66.9396 17.6528 67.8919 17.9514 68.5499 18.5171C69.2078 19.0828 69.5541 19.8843 69.5541 20.9371V24.1271C69.5541 24.9443 69.2424 25.5885 68.6364 26.06C68.0824 26.5 67.3032 26.7043 66.2989 26.7043H62.0568Z" fill="black"/>
<path d="M57.0775 14.6672V26.7044H54.9997V20.3558H47.1388V26.7044H45.061V14.6672H47.1388V18.7058H54.9997V14.6672H57.0775Z" fill="black"/>
</svg>
